<?xml version="1.0" encoding="UTF-8"?>
<svg width="26px" height="30px" viewBox="0 0 26 30" version="1.1" xmlns="http://www.w3.org/2000/svg" xmlns:xlink="http://www.w3.org/1999/xlink">
    <title>cool</title>
    <g id="Guía-de-estilo" stroke="none" stroke-width="1" fill="none" fill-rule="evenodd">
        <g id="Iconos" transform="translate(-629.000000, -426.000000)" fill="#1F2933" fill-rule="nonzero">
            <path d="M641.857143,456 C641.507867,456 641.224397,455.707826 641.224397,455.347826 L641.224397,447.521739 C641.224397,447.161739 641.507867,446.869565 641.857143,446.869565 C642.206419,446.869565 642.489889,447.161739 642.489889,447.521739 L642.489889,455.347826 C642.489889,455.707826 642.206419,456 641.857143,456 Z M636.377565,438.391304 C636.268732,438.391304 636.158635,438.362609 636.061192,438.303913 L629.485698,434.39087 C629.18198,434.21087 629.07821,433.811739 629.254113,433.5 C629.428751,433.188261 629.815991,433.082609 630.118444,433.261304 L636.377565,436.986522 L641.224397,434.102609 L641.224397,426.652174 C641.224397,426.292174 641.507867,426 641.857143,426 C642.206419,426 642.489889,426.292174 642.489889,426.652174 L642.489889,434.478261 C642.489889,434.711739 642.368401,434.926957 642.173516,435.043043 L636.693938,438.303913 C636.596495,438.362609 636.486397,438.391304 636.377565,438.391304 Z M641.857143,429.913043 C641.760966,429.913043 641.663523,429.889565 641.573673,429.843913 L639.04269,428.539565 C638.730113,428.37913 638.60483,427.986522 638.760485,427.664348 C638.918672,427.342174 639.297054,427.213043 639.60963,427.372174 L641.857143,428.531739 L644.104656,427.373478 C644.418498,427.213043 644.79688,427.342174 644.953801,427.665652 C645.109456,427.987826 644.982907,428.37913 644.67033,428.54087 L642.139347,429.845217 C642.050763,429.889565 641.95332,429.913043 641.857143,429.913043 Z M641.857143,432.521739 C641.760966,432.521739 641.663523,432.498261 641.573673,432.452609 L639.04269,431.148261 C638.730113,430.987826 638.60483,430.595217 638.760485,430.273043 C638.918672,429.949565 639.297054,429.823043 639.60963,429.98087 L641.857143,431.140435 L644.104656,429.982174 C644.418498,429.821739 644.79688,429.95087 644.953801,430.274348 C645.109456,430.596522 644.982907,430.987826 644.67033,431.149565 L642.139347,432.453913 C642.050763,432.498261 641.95332,432.521739 641.857143,432.521739 Z M644.388126,454.695652 C644.293214,454.695652 644.197037,454.673478 644.104656,454.626522 L641.857143,453.468261 L639.60963,454.626522 C639.295788,454.785652 638.917406,454.657826 638.760485,454.334348 C638.60483,454.012174 638.731379,453.62087 639.043955,453.45913 L641.574938,452.154783 C641.753373,452.063478 641.963444,452.063478 642.140613,452.154783 L644.671596,453.45913 C644.984172,453.62087 645.110721,454.012174 644.955066,454.334348 C644.842437,454.563913 644.619711,454.695652 644.388126,454.695652 Z M644.388126,452.086957 C644.293214,452.086957 644.197037,452.064783 644.104656,452.017826 L641.857143,450.859565 L639.60963,452.017826 C639.295788,452.178261 638.917406,452.04913 638.760485,451.725652 C638.60483,451.403478 638.731379,451.012174 639.043955,450.850435 L641.574938,449.546087 C641.753373,449.454783 641.963444,449.454783 642.140613,449.546087 L644.671596,450.850435 C644.984172,451.012174 645.110721,451.403478 644.955066,451.725652 C644.842437,451.955217 644.619711,452.086957 644.388126,452.086957 Z M653.912215,448.826087 C653.804648,448.826087 653.695816,448.798696 653.595842,448.738696 L647.020348,444.825652 C646.717896,444.645652 646.614125,444.246522 646.788763,443.934783 C646.963401,443.623043 647.351907,443.518696 647.653094,443.696087 L654.228588,447.60913 C654.53104,447.78913 654.63481,448.188261 654.460173,448.5 C654.343747,448.708696 654.129879,448.826087 653.912215,448.826087 Z M653.912215,448.826087 C653.804648,448.826087 653.695816,448.798696 653.595842,448.738696 L647.020348,444.825652 C646.825462,444.709565 646.703975,444.494348 646.703975,444.26087 L646.703975,437.73913 C646.703975,437.505652 646.825462,437.290435 647.020348,437.174348 L653.595842,433.261304 C653.897029,433.081304 654.285535,433.186957 654.460173,433.5 C654.636076,433.811739 654.532306,434.21087 654.228588,434.39087 L647.969467,438.116087 L647.969467,443.885217 L654.228588,447.60913 C654.53104,447.78913 654.63481,448.188261 654.460173,448.5 C654.343747,448.708696 654.129879,448.826087 653.912215,448.826087 Z M629.632495,437.389565 C629.427485,437.389565 629.226272,437.286522 629.104785,437.096087 C628.91243,436.796087 628.992156,436.390435 629.284485,436.192174 L631.381404,434.765217 L631.531998,432.18 C631.552246,431.821304 631.821795,431.552609 632.201443,431.568261 C632.549453,431.590435 632.815206,431.898261 632.794958,432.258261 L632.625382,435.169565 C632.612727,435.374348 632.508957,435.562174 632.341912,435.675652 L629.980505,437.281304 C629.872938,437.354348 629.752717,437.389565 629.632495,437.389565 Z M631.824326,438.693913 C631.619317,438.693913 631.418104,438.59087 631.296616,438.400435 C631.104262,438.100435 631.183988,437.694783 631.476316,437.497826 L633.57197,436.07087 L633.723829,433.484348 C633.745342,433.124348 634.012361,432.850435 634.39454,432.872609 C634.74255,432.894783 635.008303,433.202609 634.988055,433.562609 L634.817214,436.473913 C634.804559,436.678696 634.700788,436.865217 634.533744,436.978696 L632.173602,438.585652 C632.066035,438.658696 631.944548,438.693913 631.824326,438.693913 Z M651.550808,450.433043 C651.538153,450.433043 651.525498,450.433043 651.512843,450.431739 C651.164833,450.409565 650.89908,450.101739 650.919327,449.741739 L651.088903,446.830435 C651.101558,446.625652 651.205329,446.437826 651.372373,446.324348 L653.733781,444.717391 C654.023578,444.51913 654.417146,444.601304 654.609501,444.902609 C654.801855,445.202609 654.722129,445.608261 654.429801,445.806522 L652.332881,447.233478 L652.182288,449.818696 C652.163306,450.165652 651.883632,450.433043 651.550808,450.433043 Z M649.358976,449.128696 C649.346322,449.128696 649.333667,449.128696 649.321012,449.127391 C648.973002,449.105217 648.707248,448.797391 648.727496,448.437391 L648.898338,445.526087 C648.910992,445.321304 649.014763,445.134783 649.181808,445.021304 L651.541949,443.414348 C651.831747,443.214783 652.225315,443.298261 652.417669,443.599565 C652.610024,443.899565 652.530298,444.305217 652.23797,444.502174 L650.142316,445.92913 L649.990457,448.515652 C649.970209,448.861304 649.690535,449.128696 649.358976,449.128696 Z M641.857143,456 C641.507867,456 641.224397,455.707826 641.224397,455.347826 L641.224397,447.898696 L636.377565,445.014783 L630.118444,448.74 C629.814726,448.918696 629.427485,448.813043 629.254113,448.501304 C629.07821,448.189565 629.18198,447.790435 629.485698,447.610435 L636.061192,443.697391 C636.256078,443.581304 636.499052,443.581304 636.693938,443.697391 L642.173516,446.958261 C642.368401,447.074348 642.489889,447.289565 642.489889,447.523043 L642.489889,455.34913 C642.489889,455.707826 642.206419,456 641.857143,456 Z M632.163478,450.433043 C631.830654,450.433043 631.552246,450.165652 631.531998,449.82 L631.381404,447.234783 L629.284485,445.807826 C628.993422,445.609565 628.91243,445.205217 629.104785,444.903913 C629.295874,444.602609 629.688177,444.520435 629.980505,444.718696 L632.341912,446.325652 C632.508957,446.43913 632.612727,446.625652 632.625382,446.831739 L632.794958,449.743043 C632.816472,450.101739 632.550718,450.41087 632.201443,450.433043 C632.187522,450.431739 632.176133,450.433043 632.163478,450.433043 Z M634.355309,449.128696 C634.022485,449.128696 633.744077,448.861304 633.723829,448.515652 L633.57197,445.92913 L631.476316,444.502174 C631.185253,444.303913 631.104262,443.899565 631.296616,443.599565 C631.487706,443.298261 631.881273,443.214783 632.172336,443.414348 L634.532478,445.021304 C634.699523,445.133478 634.803293,445.321304 634.815948,445.526087 L634.98679,448.437391 C635.008303,448.797391 634.74255,449.106522 634.393274,449.127391 C634.380619,449.127391 634.367964,449.128696 634.355309,449.128696 Z M654.081791,437.389565 C653.961569,437.389565 653.841347,437.354348 653.733781,437.281304 L651.372373,435.674348 C651.205329,435.56087 651.101558,435.374348 651.088903,435.168261 L650.919327,432.256957 C650.897814,431.898261 651.163567,431.58913 651.512843,431.566957 C651.893756,431.555217 652.16204,431.82 652.182288,432.178696 L652.332881,434.763913 L654.429801,436.19087 C654.720864,436.38913 654.801855,436.793478 654.609501,437.094783 C654.488013,437.286522 654.2868,437.389565 654.081791,437.389565 Z M651.889959,438.693913 C651.769738,438.693913 651.649516,438.658696 651.541949,438.585652 L649.181808,436.978696 C649.014763,436.866522 648.910992,436.678696 648.898338,436.473913 L648.727496,433.562609 C648.705983,433.202609 648.971736,432.893478 649.321012,432.872609 C649.704456,432.853043 649.970209,433.125652 649.990457,433.484348 L650.142316,436.07087 L652.23797,437.497826 C652.529033,437.696087 652.610024,438.100435 652.417669,438.400435 C652.296182,438.59087 652.094969,438.693913 651.889959,438.693913 Z M647.336721,438.391304 C647.227889,438.391304 647.117791,438.362609 647.020348,438.303913 L641.54077,435.043043 C641.238318,434.863043 641.134547,434.463913 641.309185,434.152174 C641.483823,433.83913 641.871063,433.736087 642.173516,433.913478 L647.336721,436.986522 L653.595842,433.261304 C653.897029,433.081304 654.285535,433.186957 654.460173,433.5 C654.636076,433.811739 654.532306,434.21087 654.228588,434.39087 L647.653094,438.303913 C647.555651,438.362609 647.445553,438.391304 647.336721,438.391304 Z M641.857143,448.173913 C641.639478,448.173913 641.42561,448.057826 641.309185,447.847826 C641.133282,447.536087 641.237052,447.136957 641.54077,446.956957 L647.020348,443.696087 C647.321535,443.516087 647.710041,443.621739 647.884679,443.934783 C648.060582,444.246522 647.956812,444.645652 647.653094,444.825652 L642.173516,448.086522 C642.073542,448.146522 641.96471,448.173913 641.857143,448.173913 Z M636.377565,444.913043 C636.028289,444.913043 635.744819,444.62087 635.744819,444.26087 L635.744819,437.73913 C635.744819,437.37913 636.028289,437.086957 636.377565,437.086957 C636.72684,437.086957 637.01031,437.37913 637.01031,437.73913 L637.01031,444.26087 C637.01031,444.62087 636.72684,444.913043 636.377565,444.913043 Z M641.857143,444.26087 C641.507867,444.26087 641.224397,443.968696 641.224397,443.608696 L641.224397,438.391304 C641.224397,438.031304 641.507867,437.73913 641.857143,437.73913 C642.206419,437.73913 642.489889,438.031304 642.489889,438.391304 L642.489889,443.608696 C642.489889,443.968696 642.206419,444.26087 641.857143,444.26087 Z M644.048974,442.956522 C643.941407,442.956522 643.832575,442.92913 643.732601,442.86913 L639.347673,440.260435 C639.045221,440.080435 638.94145,439.681304 639.116088,439.369565 C639.290726,439.057826 639.676701,438.953478 639.980419,439.13087 L644.365347,441.739565 C644.667799,441.919565 644.77157,442.318696 644.596932,442.630435 C644.480507,442.83913 644.266639,442.956522 644.048974,442.956522 Z M639.665312,442.956522 C639.447647,442.956522 639.233779,442.83913 639.117354,442.630435 C638.94145,442.318696 639.045221,441.919565 639.348939,441.739565 L643.733867,439.13087 C644.035054,438.952174 644.42356,439.056522 644.598197,439.369565 C644.774101,439.681304 644.67033,440.080435 644.366612,440.260435 L639.981684,442.86913 C639.880445,442.92913 639.772878,442.956522 639.665312,442.956522 Z" id="cool"></path>
        </g>
    </g>
</svg>