<?xml version="1.0" encoding="UTF-8"?>
<svg width="30px" height="30px" viewBox="0 0 30 30" version="1.1" xmlns="http://www.w3.org/2000/svg" xmlns:xlink="http://www.w3.org/1999/xlink">
    <title>heat</title>
    <g id="Guía-de-estilo" stroke="none" stroke-width="1" fill="none" fill-rule="evenodd">
        <g id="Iconos" transform="translate(-560.000000, -426.000000)" fill="#1F2933" fill-rule="nonzero">
            <path d="M575,450.782609 C569.605217,450.782609 565.217391,446.394783 565.217391,441 C565.217391,435.605217 569.605217,431.217391 575,431.217391 C580.394783,431.217391 584.782609,435.605217 584.782609,441 C584.782609,446.394783 580.394783,450.782609 575,450.782609 Z M575,432.521739 C570.325217,432.521739 566.521739,436.325217 566.521739,441 C566.521739,445.674783 570.325217,449.478261 575,449.478261 C579.674783,449.478261 583.478261,445.674783 583.478261,441 C583.478261,436.325217 579.674783,432.521739 575,432.521739 Z M575,429.913043 C574.64,429.913043 574.347826,429.62087 574.347826,429.26087 L574.347826,426.652174 C574.347826,426.292174 574.64,426 575,426 C575.36,426 575.652174,426.292174 575.652174,426.652174 L575.652174,429.26087 C575.652174,429.62087 575.36,429.913043 575,429.913043 Z M575,456 C574.64,456 574.347826,455.707826 574.347826,455.347826 L574.347826,452.73913 C574.347826,452.37913 574.64,452.086957 575,452.086957 C575.36,452.086957 575.652174,452.37913 575.652174,452.73913 L575.652174,455.347826 C575.652174,455.707826 575.36,456 575,456 Z M569.130435,431.486087 C568.904783,431.486087 568.685652,431.37 568.564348,431.16 L567.26,428.90087 C567.081304,428.587826 567.188261,428.19 567.5,428.01 C567.810435,427.828696 568.209565,427.935652 568.39087,428.248696 L569.695217,430.507826 C569.875217,430.819565 569.768261,431.217391 569.456522,431.398696 C569.353478,431.457391 569.241304,431.486087 569.130435,431.486087 Z M582.173913,454.077391 C581.948261,454.077391 581.72913,453.961304 581.607826,453.751304 L580.303478,451.492174 C580.123478,451.180435 580.230435,450.781304 580.542174,450.601304 C580.852609,450.42 581.251739,450.526957 581.433043,450.84 L582.737391,453.09913 C582.917391,453.41087 582.810435,453.81 582.498696,453.99 C582.396957,454.05 582.284783,454.077391 582.173913,454.077391 Z M564.832609,435.782609 C564.721739,435.782609 564.609565,435.755217 564.507826,435.695217 L562.248696,434.39087 C561.935652,434.21087 561.828696,433.811739 562.01,433.5 C562.19,433.186957 562.58913,433.081304 562.90087,433.261304 L565.16,434.565652 C565.471739,434.745652 565.578696,435.144783 565.398696,435.456522 C565.277391,435.666522 565.058261,435.782609 564.832609,435.782609 Z M587.425217,448.826087 C587.314348,448.826087 587.202174,448.798696 587.09913,448.738696 L584.84,447.434348 C584.528261,447.254348 584.421304,446.855217 584.601304,446.543478 C584.781304,446.230435 585.180435,446.124783 585.492174,446.304783 L587.751304,447.60913 C588.063043,447.78913 588.17,448.188261 587.99,448.5 C587.87,448.71 587.65087,448.826087 587.425217,448.826087 Z M563.26087,441.652174 L560.652174,441.652174 C560.292174,441.652174 560,441.36 560,441 C560,440.64 560.292174,440.347826 560.652174,440.347826 L563.26087,440.347826 C563.62087,440.347826 563.913043,440.64 563.913043,441 C563.913043,441.36 563.62087,441.652174 563.26087,441.652174 Z M589.347826,441.652174 L586.73913,441.652174 C586.37913,441.652174 586.086957,441.36 586.086957,441 C586.086957,440.64 586.37913,440.347826 586.73913,440.347826 L589.347826,440.347826 C589.707826,440.347826 590,440.64 590,441 C590,441.36 589.707826,441.652174 589.347826,441.652174 Z M562.574783,448.826087 C562.34913,448.826087 562.13,448.71 562.008696,448.5 C561.828696,448.188261 561.935652,447.78913 562.247391,447.60913 L564.506522,446.304783 C564.816957,446.124783 565.217391,446.230435 565.398696,446.543478 C565.578696,446.855217 565.471739,447.254348 565.16,447.434348 L562.90087,448.738696 C562.797826,448.798696 562.685652,448.826087 562.574783,448.826087 Z M585.167391,435.782609 C584.941739,435.782609 584.722609,435.666522 584.601304,435.456522 C584.421304,435.144783 584.528261,434.745652 584.84,434.565652 L587.09913,433.261304 C587.409565,433.081304 587.808696,433.186957 587.99,433.5 C588.17,433.811739 588.063043,434.21087 587.751304,434.39087 L585.492174,435.695217 C585.390435,435.755217 585.278261,435.782609 585.167391,435.782609 Z M567.826087,454.077391 C567.715217,454.077391 567.603043,454.05 567.5,453.99 C567.188261,453.81 567.081304,453.41087 567.261304,453.09913 L568.565652,450.84 C568.745652,450.526957 569.144783,450.42 569.456522,450.601304 C569.768261,450.781304 569.875217,451.180435 569.695217,451.492174 L568.39087,453.751304 C568.269565,453.961304 568.050435,454.077391 567.826087,454.077391 Z M580.869565,431.486087 C580.758696,431.486087 580.646522,431.458696 580.543478,431.398696 C580.231739,431.218696 580.124783,430.819565 580.304783,430.507826 L581.60913,428.248696 C581.78913,427.935652 582.188261,427.828696 582.5,428.01 C582.811739,428.19 582.918696,428.58913 582.738696,428.90087 L581.434348,431.16 C581.313043,431.368696 581.093913,431.486087 580.869565,431.486087 Z" id="heat"></path>
        </g>
    </g>
</svg>